<?xml version="1.0" encoding="iso-8859-1"?>
<!-- Generator: Adobe Illustrator 18.0.0, SVG Export Plug-In . SVG Version: 6.00 Build 0)  -->
<!DOCTYPE svg PUBLIC "-//W3C//DTD SVG 1.1//EN" "http://www.w3.org/Graphics/SVG/1.1/DTD/svg11.dtd">
<svg version="1.1" id="Capa_1" xmlns="http://www.w3.org/2000/svg" xmlns:xlink="http://www.w3.org/1999/xlink" x="0px" y="0px"
	 viewBox="0 0 489.164 489.164" style="enable-background:new 0 0 489.164 489.164;" xml:space="preserve">
<g>
	<path d="M413.713,249.258h-28.072c-17.461,9.95-37.582,15.717-59.074,15.717c-21.492,0-41.613-5.767-59.074-15.717H75.452
		C33.775,249.258,0,283.041,0,324.71c0,32.111,20.138,59.353,48.416,70.25v19.143c0,15.573,12.617,28.199,28.199,28.199h34.046
		c15.581,0,28.198-12.626,28.198-28.199v-13.941h211.445v13.941c0,15.573,12.617,28.199,28.199,28.199h34.045
		c15.582,0,28.199-12.626,28.199-28.199V395.59c28.278-9.726,48.416-34.875,48.416-70.879
		C489.164,282.221,455.39,249.258,413.713,249.258z"/>
	<path d="M419.847,220.111c38.761-3.044,69.317-33.879,69.317-74.854c0-37.097-30.524-71.343-69.254-74.784
		c16.473,20.512,26.383,46.488,26.383,74.775C446.293,173.574,436.352,199.592,419.847,220.111z"/>
	<path d="M75.452,220.709h158.265c-16.775-20.608-26.877-46.872-26.877-75.46c0-28.581,10.102-54.836,26.877-75.444H75.452
		C33.775,69.805,0,103.588,0,145.257C0,186.926,33.775,220.709,75.452,220.709z M61.672,136.415
		c13.51,0,24.471,10.953,24.471,24.471c0,13.518-10.961,24.471-24.471,24.471c-13.51,0-24.471-10.953-24.471-24.471
		C37.201,147.368,48.162,136.415,61.672,136.415z"/>
	<path d="M326.566,243.643c54.247,0,98.392-44.139,98.392-98.394c0-54.248-44.146-98.386-98.392-98.386
		c-54.247,0-98.395,44.139-98.395,98.386C228.172,199.504,272.319,243.643,326.566,243.643z M326.566,75.317
		c38.571,0,69.939,31.369,69.939,69.932c0,38.563-31.368,69.939-69.939,69.939s-69.94-31.376-69.94-69.939
		C256.627,106.686,287.995,75.317,326.566,75.317z"/>
</g>
<g>
</g>
<g>
</g>
<g>
</g>
<g>
</g>
<g>
</g>
<g>
</g>
<g>
</g>
<g>
</g>
<g>
</g>
<g>
</g>
<g>
</g>
<g>
</g>
<g>
</g>
<g>
</g>
<g>
</g>
</svg>
