<?xml version="1.0" encoding="iso-8859-1"?>
<!-- Generator: Adobe Illustrator 18.0.0, SVG Export Plug-In . SVG Version: 6.00 Build 0)  -->
<!DOCTYPE svg PUBLIC "-//W3C//DTD SVG 1.1//EN" "http://www.w3.org/Graphics/SVG/1.1/DTD/svg11.dtd">
<svg version="1.1" id="Capa_1" xmlns="http://www.w3.org/2000/svg" xmlns:xlink="http://www.w3.org/1999/xlink" x="0px" y="0px"
	 viewBox="0 0 489.419 489.419" style="enable-background:new 0 0 489.419 489.419;" xml:space="preserve">
<path d="M399.198,154.48C399.198,69.166,330.024,0,244.709,0C159.379,0,90.221,69.166,90.221,154.48
	c0,52.663,26.414,99.111,66.641,126.999v57.298c-3.822,2.15-7.201,5.059-9.781,8.77c-4.508,6.477-6.229,14.33-4.844,22.105
	c1.005,5.615,3.586,10.578,7.187,14.57c-5.848,6.547-8.843,15.549-7.187,24.852c0.988,5.513,3.49,10.404,6.979,14.355
	c-5.703,6.532-8.618,15.413-6.979,24.598c2.518,14.115,14.753,24.36,29.076,24.36c1.72,0,3.424-0.144,5.242-0.463l36.229-6.491
	c4.093,13.828,16.76,23.985,31.91,23.985c18.479,0,33.456-14.977,33.456-33.449v-2.246l45.151-8.085
	c16.043-2.876,26.764-18.265,23.897-34.308c-0.987-5.513-3.505-10.381-6.994-14.347c5.72-6.532,8.635-15.421,6.994-24.606
	c-1.004-5.617-3.584-10.586-7.186-14.593c5.848-6.548,8.842-15.543,7.186-24.83c-1.594-8.961-7.169-16.267-14.641-20.489v-30.987
	C372.784,253.591,399.198,207.143,399.198,154.48z M319.827,426.235l-146.697,26.279c-5.496,0.939-10.531-2.653-11.487-7.95
	c-0.956-5.352,2.612-10.491,7.966-11.447l146.746-26.287c0.605-0.111,1.194-0.16,1.785-0.16c4.764,0,8.809,3.418,9.654,8.118
	C328.75,420.14,325.18,425.279,319.827,426.235z M171.773,412.723c-4.666,0.806-9.133-2.236-10.086-6.875
	c-0.016-0.078-0.031-0.157-0.045-0.236c-0.956-5.353,2.612-10.492,7.966-11.448l146.746-26.287c0.605-0.111,1.194-0.16,1.785-0.16
	c4.764,0,8.809,3.418,9.654,8.118c0.924,5.201-2.389,10.458-7.552,11.28C317.394,387.567,192.98,409.059,171.773,412.723z
	 M172.343,373.659c-4.909,0.856-9.618-2.326-10.647-7.201c-0.02-0.089-0.037-0.179-0.054-0.27c-0.462-2.597,0.11-5.217,1.608-7.384
	c1.514-2.16,3.761-3.602,6.358-4.064l146.746-26.287c0.605-0.111,1.194-0.16,1.785-0.16c4.764,0,8.809,3.418,9.654,8.118
	c0.956,5.353-2.611,10.501-7.967,11.448C297.709,351.769,202.29,368.438,172.343,373.659z M314.569,255.527
	c-8.507,5.902-13.589,15.596-13.589,25.952v29.705l-21.38,3.824v-84.374l41.311-56.892c5.289-7.289,3.664-17.494-3.617-22.783
	c-7.328-5.322-17.508-3.664-22.797,3.617l-44.418,61.178c-2.023,2.788-3.107,6.142-3.107,9.582v95.518l-4.524,0.812v-96.331
	c0-3.44-1.083-6.794-3.106-9.582l-44.418-61.178c-5.305-7.281-15.484-8.93-22.797-3.617c-7.281,5.289-8.906,15.494-3.617,22.783
	l41.311,56.892v96.88l-21.379,3.824v-49.858c0-10.356-5.082-20.05-13.59-25.952c-33.219-23.029-53.053-60.804-53.053-101.047
	c0-67.773,55.139-122.904,122.912-122.904c67.773,0,122.912,55.131,122.912,122.904
	C367.622,194.724,347.788,232.499,314.569,255.527z"/>
<g>
</g>
<g>
</g>
<g>
</g>
<g>
</g>
<g>
</g>
<g>
</g>
<g>
</g>
<g>
</g>
<g>
</g>
<g>
</g>
<g>
</g>
<g>
</g>
<g>
</g>
<g>
</g>
<g>
</g>
</svg>
