<?xml version="1.0" encoding="iso-8859-1"?>
<!-- Generator: Adobe Illustrator 18.0.0, SVG Export Plug-In . SVG Version: 6.00 Build 0)  -->
<!DOCTYPE svg PUBLIC "-//W3C//DTD SVG 1.1//EN" "http://www.w3.org/Graphics/SVG/1.1/DTD/svg11.dtd">
<svg version="1.1" id="Capa_1" xmlns="http://www.w3.org/2000/svg" xmlns:xlink="http://www.w3.org/1999/xlink" x="0px" y="0px"
	 viewBox="0 0 472.396 472.396" style="enable-background:new 0 0 472.396 472.396;" xml:space="preserve">
<g>
	<path d="M374.116,54.882c3.909-1.632,8.031-2.458,12.254-2.458c12.867,0,24.389,7.675,29.345,19.55l36.32,86.933V60.989
		c0-12.205-9.89-22.095-22.087-22.095H244.054l58.676,45.808L374.116,54.882z"/>
	<path d="M87.484,67.522c4.317,0,8.526,0.858,12.528,2.577l57.754,24.76l40.283-51.592c1.285-1.64,2.766-3.042,4.303-4.373H42.448
		c-12.198,0-22.088,9.89-22.088,22.095v114.216L58.247,86.82C63.26,75.095,74.733,67.522,87.484,67.522z"/>
	<path d="M433.95,178.427l-40.574-97.123c-1.214-2.914-4.035-4.672-7.006-4.672c-0.978,0-1.97,0.188-2.925,0.591l-58.825,24.57
		l47.793,37.313c6.675,5.24,10.906,12.75,11.931,21.149c0.765,6.234-0.386,12.594-3.184,18.172H433.95z"/>
	<path d="M251.178,134.906c7.716,3.285,13.924,9.638,17.084,17.502c3.121,7.881,3.003,16.508-0.339,24.279l-0.75,1.74h84.066
		l7.525-9.638c1.238-1.583,1.798-3.601,1.552-5.595c-0.244-2.002-1.276-3.813-2.86-5.059L227.766,56.883
		c-1.386-1.086-3.033-1.607-4.664-1.607c-2.255,0-4.492,1.001-5.99,2.916l-36.336,46.532L251.178,134.906z"/>
	<path d="M241.698,157.183L90.47,92.345c-0.977-0.419-1.985-0.615-2.985-0.615c-2.94,0-5.746,1.727-6.976,4.603l-35.191,82.095
		h195.522l4.838-11.283c0.795-1.854,0.82-3.941,0.079-5.809C245.008,159.468,243.551,157.97,241.698,157.183z"/>
	<path d="M467.009,218.34c-4.201-4.853-10.292-7.636-16.707-7.636H22.094c-6.415,0-12.505,2.783-16.707,7.636
		c-4.191,4.847-6.075,11.277-5.161,17.62l25.878,178.612c1.577,10.867,10.89,18.929,21.868,18.929h376.452
		c10.977,0,20.291-8.061,21.867-18.929l25.879-178.612C473.083,229.618,471.2,223.187,467.009,218.34z"/>
</g>
<g>
</g>
<g>
</g>
<g>
</g>
<g>
</g>
<g>
</g>
<g>
</g>
<g>
</g>
<g>
</g>
<g>
</g>
<g>
</g>
<g>
</g>
<g>
</g>
<g>
</g>
<g>
</g>
<g>
</g>
</svg>
