<?xml version="1.0" encoding="iso-8859-1"?>
<!-- Generator: Adobe Illustrator 18.0.0, SVG Export Plug-In . SVG Version: 6.00 Build 0)  -->
<!DOCTYPE svg PUBLIC "-//W3C//DTD SVG 1.1//EN" "http://www.w3.org/Graphics/SVG/1.1/DTD/svg11.dtd">
<svg version="1.1" id="Capa_1" xmlns="http://www.w3.org/2000/svg" xmlns:xlink="http://www.w3.org/1999/xlink" x="0px" y="0px"
	 viewBox="0 0 455.897 455.897" style="enable-background:new 0 0 455.897 455.897;" xml:space="preserve">
<g>
	<path d="M146.739,137.441c-34.115-25.508-44.737-88.321-48.016-121.191c-0.302-3.072-2.533-5.621-5.542-6.35
		c-3.008-0.727-6.151,0.539-7.83,3.137C53.716,62.199-27.384,206.206,9.366,341.331c28.69,105.485,101.375,109.174,150.088,103.047
		c11.091-1.395,21.794-4.18,31.864-8.17c-24.755-14.536-133.019-88.543-119.995-264.678c0,0,24.003,183.497,158.994,239.803
		c21.385-20.378,34.976-48.831,34.976-82.89C265.294,293.182,275.57,233.789,146.739,137.441z"/>
	<path d="M401.821,170.739c-1.071-1.645-3.056-2.453-4.964-1.994c-1.909,0.459-3.326,2.073-3.515,4.021
		c-2.074,20.821-8.804,60.628-30.417,76.793c-81.623,61.04-75.115,98.66-75.115,121.001c0,21.582,8.614,39.617,22.159,52.521
		c85.526-35.674,100.734-151.924,100.734-151.924c8.25,111.596-60.342,158.479-76.026,167.679
		c6.381,2.532,13.165,4.307,20.189,5.177c30.868,3.895,76.92,1.552,95.097-65.283C473.246,293.118,421.859,201.884,401.821,170.739z
		"/>
</g>
<g>
</g>
<g>
</g>
<g>
</g>
<g>
</g>
<g>
</g>
<g>
</g>
<g>
</g>
<g>
</g>
<g>
</g>
<g>
</g>
<g>
</g>
<g>
</g>
<g>
</g>
<g>
</g>
<g>
</g>
</svg>
