<?xml version="1.0" encoding="iso-8859-1"?>
<!-- Generator: Adobe Illustrator 18.0.0, SVG Export Plug-In . SVG Version: 6.00 Build 0)  -->
<!DOCTYPE svg PUBLIC "-//W3C//DTD SVG 1.1//EN" "http://www.w3.org/Graphics/SVG/1.1/DTD/svg11.dtd">
<svg version="1.1" id="Capa_1" xmlns="http://www.w3.org/2000/svg" xmlns:xlink="http://www.w3.org/1999/xlink" x="0px" y="0px"
	 viewBox="0 0 476.159 476.159" style="enable-background:new 0 0 476.159 476.159;" xml:space="preserve">
<g>
	<path d="M308.563,84.448v69.016c41.314,24.289,69.184,69.091,69.184,120.377c0,77.016-62.652,139.667-139.667,139.667
		c-77.015,0-139.667-62.651-139.667-139.667c0-51.286,27.869-96.088,69.184-120.377V84.448
		C90.735,113.143,35.761,187.099,35.761,273.841c0,111.554,90.765,202.318,202.318,202.318
		c111.553,0,202.318-90.765,202.318-202.318C440.398,187.099,385.424,113.143,308.563,84.448z"/>
	<path d="M238.08,229.362c21.629,0,39.157-17.53,39.157-39.158V39.157C277.237,17.53,259.708,0,238.08,0
		s-39.157,17.53-39.157,39.157v151.047C198.922,211.832,216.451,229.362,238.08,229.362z"/>
</g>
<g>
</g>
<g>
</g>
<g>
</g>
<g>
</g>
<g>
</g>
<g>
</g>
<g>
</g>
<g>
</g>
<g>
</g>
<g>
</g>
<g>
</g>
<g>
</g>
<g>
</g>
<g>
</g>
<g>
</g>
</svg>
