<?xml version="1.0" encoding="UTF-8" standalone="no"?>
<!-- Generator: Adobe Illustrator 16.0.0, SVG Export Plug-In . SVG Version: 6.00 Build 0)  -->

<svg
   xmlns:dc="http://purl.org/dc/elements/1.1/"
   xmlns:cc="http://creativecommons.org/ns#"
   xmlns:rdf="http://www.w3.org/1999/02/22-rdf-syntax-ns#"
   xmlns:svg="http://www.w3.org/2000/svg"
   xmlns="http://www.w3.org/2000/svg"
   xmlns:sodipodi="http://sodipodi.sourceforge.net/DTD/sodipodi-0.dtd"
   xmlns:inkscape="http://www.inkscape.org/namespaces/inkscape"
   version="1.1"
   id="Capa_1"
   x="0px"
   y="0px"
   width="385.576px"
   height="385.576px"
   viewBox="0 0 385.576 385.576"
   style="enable-background:new 0 0 385.576 385.576;"
   xml:space="preserve"
   inkscape:version="0.48.4 r9939"
   sodipodi:docname="zoom_reset.svg"><metadata
     id="metadata50"><rdf:RDF><cc:Work
         rdf:about=""><dc:format>image/svg+xml</dc:format><dc:type
           rdf:resource="http://purl.org/dc/dcmitype/StillImage" /></cc:Work></rdf:RDF></metadata><defs
     id="defs48" /><sodipodi:namedview
     pagecolor="#ffffff"
     bordercolor="#666666"
     borderopacity="1"
     objecttolerance="10"
     gridtolerance="10"
     guidetolerance="10"
     inkscape:pageopacity="0"
     inkscape:pageshadow="2"
     inkscape:window-width="1920"
     inkscape:window-height="1010"
     id="namedview46"
     showgrid="false"
     inkscape:zoom="1.7311991"
     inkscape:cx="430.71248"
     inkscape:cy="183.21266"
     inkscape:window-x="-2"
     inkscape:window-y="-3"
     inkscape:window-maximized="1"
     inkscape:current-layer="Capa_1" /><path
     d="M 256.906,12.304 C 193.437,-17.803 117.581,9.241 87.473,72.708 c -30.107,63.467 -3.064,139.324 60.403,169.433 63.467,30.106 139.325,3.063 169.431,-60.403 30.11,-63.468 3.067,-139.327 -60.401,-169.434 z m 25.567,152.907 C 261.494,209.44 208.63,228.284 164.404,207.305 120.175,186.326 101.331,133.461 122.311,89.234 143.291,45.005 196.155,26.16 240.38,47.14 c 44.228,20.981 63.074,73.843 42.093,118.071 z"
     id="path12"
     inkscape:connector-curvature="0" /><path
     d="m 121.721,248.436 c -3.551,-1.686 -7.833,-0.156 -9.517,3.394 L 56.649,357.851 c -1.684,3.552 -0.157,7.834 3.393,9.519 l 36.938,17.52 c 3.549,1.687 7.833,0.157 9.516,-3.393 l 55.555,-106.022 c 1.685,-3.551 0.157,-7.832 -3.393,-9.518 l -36.937,-17.521 z"
     id="path14"
     inkscape:connector-curvature="0" /><g
     id="g16" /><g
     id="g18" /><g
     id="g20" /><g
     id="g22" /><g
     id="g24" /><g
     id="g26" /><g
     id="g28" /><g
     id="g30" /><g
     id="g32" /><g
     id="g34" /><g
     id="g36" /><g
     id="g38" /><g
     id="g40" /><g
     id="g42" /><g
     id="g44" /><text
     xml:space="preserve"
     style="font-size:61.24633026px;font-style:normal;font-weight:normal;line-height:125%;letter-spacing:0px;word-spacing:0px;fill:#000000;fill-opacity:1;stroke:none;font-family:Sans"
     x="147.2052"
     y="199.80759"
     id="text3045"
     sodipodi:linespacing="125%"
     transform="scale(0.95820437,1.0436187)"><tspan
       sodipodi:role="line"
       id="tspan3047"
       x="147.2052"
       y="199.80759"
       style="font-size:219.40132141px;font-style:normal;font-variant:normal;font-weight:bold;font-stretch:normal;font-family:Arial;-inkscape-font-specification:Arial Bold">=</tspan></text>
</svg>